<svg width="26" height="26" viewBox="0 0 26 26" fill="none" xmlns="http://www.w3.org/2000/svg">
<path d="M9.75 5.41666V9.74999" stroke="#9686DA" stroke-width="2.16667" stroke-linecap="round" stroke-linejoin="round"/>
<path d="M10.8333 9.75H8.66665C8.06834 9.75 7.58331 10.235 7.58331 10.8333V15.1667C7.58331 15.765 8.06834 16.25 8.66665 16.25H10.8333C11.4316 16.25 11.9166 15.765 11.9166 15.1667V10.8333C11.9166 10.235 11.4316 9.75 10.8333 9.75Z" stroke="#9686DA" stroke-width="2.16667" stroke-linecap="round" stroke-linejoin="round"/>
<path d="M9.75 16.25V18.4167" stroke="#9686DA" stroke-width="2.16667" stroke-linecap="round" stroke-linejoin="round"/>
<path d="M18.4167 3.25V5.41667" stroke="#9686DA" stroke-width="2.16667" stroke-linecap="round" stroke-linejoin="round"/>
<path d="M19.5 5.41666H17.3333C16.735 5.41666 16.25 5.90168 16.25 6.49999V13C16.25 13.5983 16.735 14.0833 17.3333 14.0833H19.5C20.0983 14.0833 20.5833 13.5983 20.5833 13V6.49999C20.5833 5.90168 20.0983 5.41666 19.5 5.41666Z" stroke="#9686DA" stroke-width="2.16667" stroke-linecap="round" stroke-linejoin="round"/>
<path d="M18.4167 14.0833V17.3333" stroke="#9686DA" stroke-width="2.16667" stroke-linecap="round" stroke-linejoin="round"/>
<path d="M3.25 3.25V22.75H22.75" stroke="#9686DA" stroke-width="2.16667" stroke-linecap="round" stroke-linejoin="round"/>
</svg>
