<svg xmlns="http://www.w3.org/2000/svg" width="26" height="26" fill="none"><path stroke="#9686DA" stroke-linecap="round" stroke-linejoin="round" stroke-width="2.167" d="M4.334 17.333v-2.578c0-2.297-1.116-3.38-1.083-6.088.032-2.947 1.614-6.5 4.875-6.5 2.026 0 2.708 1.95 2.708 3.791 0 3.37-2.167 6.132-2.167 9.404v1.971a2.167 2.167 0 1 1-4.333 0ZM21.667 21.667v-2.579c0-2.296 1.115-3.38 1.083-6.088-.032-2.947-1.614-6.5-4.875-6.5-2.026 0-2.708 1.95-2.708 3.792 0 3.369 2.166 6.131 2.166 9.403v1.972a2.166 2.166 0 1 0 4.334 0ZM17.333 18.417h4.334M4.333 14.083h4.334"/></svg>