<svg width="26" height="26" viewBox="0 0 26 26" fill="none" xmlns="http://www.w3.org/2000/svg">
<g clip-path="url(#clip0_1_665)">
<path d="M9.75 3.25H4.33333C3.73502 3.25 3.25 3.73502 3.25 4.33333V11.9167C3.25 12.515 3.73502 13 4.33333 13H9.75C10.3483 13 10.8333 12.515 10.8333 11.9167V4.33333C10.8333 3.73502 10.3483 3.25 9.75 3.25Z" stroke="#9686DA" stroke-width="2.16667" stroke-linecap="round" stroke-linejoin="round"/>
<path d="M21.6667 3.25H16.25C15.6517 3.25 15.1667 3.73502 15.1667 4.33333V7.58333C15.1667 8.18164 15.6517 8.66667 16.25 8.66667H21.6667C22.265 8.66667 22.75 8.18164 22.75 7.58333V4.33333C22.75 3.73502 22.265 3.25 21.6667 3.25Z" stroke="#9686DA" stroke-width="2.16667" stroke-linecap="round" stroke-linejoin="round"/>
<path d="M21.6667 13H16.25C15.6517 13 15.1667 13.485 15.1667 14.0833V21.6667C15.1667 22.265 15.6517 22.75 16.25 22.75H21.6667C22.265 22.75 22.75 22.265 22.75 21.6667V14.0833C22.75 13.485 22.265 13 21.6667 13Z" stroke="#9686DA" stroke-width="2.16667" stroke-linecap="round" stroke-linejoin="round"/>
<path d="M9.75 17.3333H4.33333C3.73502 17.3333 3.25 17.8184 3.25 18.4167V21.6667C3.25 22.265 3.73502 22.75 4.33333 22.75H9.75C10.3483 22.75 10.8333 22.265 10.8333 21.6667V18.4167C10.8333 17.8184 10.3483 17.3333 9.75 17.3333Z" stroke="#9686DA" stroke-width="2.16667" stroke-linecap="round" stroke-linejoin="round"/>
</g>
<defs>
<clipPath id="clip0_1_665">
<rect width="26" height="26" fill="white"/>
</clipPath>
</defs>
</svg>
