<svg width="26" height="26" viewBox="0 0 26 26" fill="none" xmlns="http://www.w3.org/2000/svg">
<path d="M13 16.25C14.7949 16.25 16.25 14.7949 16.25 13C16.25 11.2051 14.7949 9.75 13 9.75C11.2051 9.75 9.75 11.2051 9.75 13C9.75 14.7949 11.2051 16.25 13 16.25Z" stroke="#9686DA" stroke-width="2.16667" stroke-linecap="round" stroke-linejoin="round"/>
<path d="M20.5833 7.58333C21.7799 7.58333 22.75 6.61328 22.75 5.41667C22.75 4.22005 21.7799 3.25 20.5833 3.25C19.3867 3.25 18.4167 4.22005 18.4167 5.41667C18.4167 6.61328 19.3867 7.58333 20.5833 7.58333Z" stroke="#9686DA" stroke-width="2.16667" stroke-linecap="round" stroke-linejoin="round"/>
<path d="M5.41667 22.75C6.61328 22.75 7.58333 21.7799 7.58333 20.5833C7.58333 19.3867 6.61328 18.4167 5.41667 18.4167C4.22005 18.4167 3.25 19.3867 3.25 20.5833C3.25 21.7799 4.22005 22.75 5.41667 22.75Z" stroke="#9686DA" stroke-width="2.16667" stroke-linecap="round" stroke-linejoin="round"/>
<path d="M11.265 23.7254C13.348 24.0677 15.4856 23.7939 17.4151 22.9378C19.3446 22.0817 20.982 20.6805 22.126 18.9065C23.27 17.1324 23.8708 15.0628 23.8545 12.9519C23.8382 10.8411 23.2056 8.78096 22.0344 7.02475" stroke="#9686DA" stroke-width="2.16667" stroke-linecap="round" stroke-linejoin="round"/>
<path d="M14.6269 2.27601C12.5524 1.95922 10.4306 2.25176 8.51926 3.11808C6.60791 3.98441 4.98931 5.38722 3.86015 7.15606C2.73099 8.9249 2.13987 10.9836 2.15864 13.0821C2.1774 15.1805 2.80523 17.2283 3.96584 18.9767" stroke="#9686DA" stroke-width="2.16667" stroke-linecap="round" stroke-linejoin="round"/>
</svg>
